<?xml version="1.0" encoding="UTF-8" standalone="no"?>
<!DOCTYPE svg PUBLIC "-//W3C//DTD SVG 1.1//EN" "http://www.w3.org/Graphics/SVG/1.1/DTD/svg11.dtd">
<!-- 由 Microsoft Visio, SVG Export 生成 rendercompare.svg Page-1 -->
<svg xmlns="http://www.w3.org/2000/svg" xmlns:xlink="http://www.w3.org/1999/xlink" xmlns:ev="http://www.w3.org/2001/xml-events"
		xmlns:v="http://schemas.microsoft.com/visio/2003/SVGExtensions/" width="13.7322in" height="4.65017in"
		viewBox="0 0 988.718 334.812" xml:space="preserve" color-interpolation-filters="sRGB" class="st7">
	<v:documentProperties v:langID="2052" v:metric="true" v:viewMarkup="false">
		<v:userDefs>
			<v:ud v:nameU="msvNoAutoConnect" v:val="VT0(1):26"/>
			<v:ud v:nameU="msvSubprocessMaster" v:prompt="" v:val="VT4(Multiple process)"/>
		</v:userDefs>
	</v:documentProperties>

	<style type="text/css">
	<![CDATA[
		.st1 {fill:none}
		.st2 {stroke:#000000;stroke-linecap:round;stroke-linejoin:round;stroke-width:3}
		.st3 {fill:#c00000;stroke:#000000;stroke-linecap:round;stroke-linejoin:round;stroke-width:0.75}
		.st4 {fill:#c05046;stroke:#000000;stroke-linecap:round;stroke-linejoin:round;stroke-width:0.75}
		.st5 {stroke:#000000;stroke-dasharray:3,6;stroke-linecap:round;stroke-linejoin:round;stroke-width:3}
		.st6 {fill:#92d050;stroke:#000000;stroke-linecap:round;stroke-linejoin:round;stroke-width:0.75}
		.st7 {fill:none;fill-rule:evenodd;font-size:12px;overflow:visible;stroke-linecap:square;stroke-miterlimit:3}
	]]>
	</style>

	<g v:mID="0" v:index="1" v:groupContext="foregroundPage">
		<v:userDefs>
			<v:ud v:nameU="msvThemeOrder" v:val="VT0(0):26"/>
		</v:userDefs>
		<title>页-1</title>
		<v:pageProperties v:drawingScale="0.0393701" v:pageScale="0.0393701" v:drawingUnits="24" v:shadowOffsetX="9"
				v:shadowOffsetY="-9"/>
		<v:layer v:name="流程图" v:index="0"/>
		<v:layer v:name="连接线" v:index="1"/>
		<g id="group29-1" transform="translate(45.6695,-21.4025)" v:mID="29" v:groupContext="group">
			<title>工作表.29</title>
			<g id="group30-2" v:mID="30" v:groupContext="group">
				<title>顶层流程</title>
				<g id="shape31-3" v:mID="31" v:groupContext="shape" v:layerMember="1" transform="translate(14.1466,-153.701)">
					<title>动态连接线</title>
					<path d="M0 334.81 L114.47 250.02 L0 334.81 Z" class="st1"/>
					<path d="M0 334.81 L114.47 250.02" class="st2"/>
				</g>
				<g id="shape32-6" v:mID="32" v:groupContext="shape" transform="translate(2.01839E-13,-141.187)">
					<title>工作表.40</title>
					<ellipse cx="7.8437" cy="326.968" rx="7.8437" ry="7.8437" class="st3"/>
				</g>
				<g id="shape33-8" v:mID="33" v:groupContext="shape" v:layerMember="1" transform="translate(14.1187,-59.6142)">
					<title>动态连接线.41</title>
					<path d="M0 250.1 L112.95 334.81 L0 250.1 Z" class="st1"/>
					<path d="M0 250.1 L112.95 334.81" class="st2"/>
				</g>
				<g id="shape34-11" v:mID="34" v:groupContext="shape" transform="translate(125.5,-47.0624)">
					<title>工作表.42</title>
					<ellipse cx="7.8437" cy="326.968" rx="7.8437" ry="7.8437" class="st3"/>
				</g>
				<g id="shape35-13" v:mID="35" v:groupContext="shape" transform="translate(127.069,-235.312)">
					<title>工作表.43</title>
					<ellipse cx="7.8437" cy="326.968" rx="7.8437" ry="7.8437" class="st3"/>
				</g>
				<g id="shape36-15" v:mID="36" v:groupContext="shape" transform="translate(250.999,-282.375)">
					<title>工作表.79</title>
					<ellipse cx="7.8437" cy="326.968" rx="7.8437" ry="7.8437" class="st3"/>
				</g>
				<g id="shape37-17" v:mID="37" v:groupContext="shape" transform="translate(250.999,-188.249)">
					<title>工作表.80</title>
					<ellipse cx="7.8437" cy="326.968" rx="7.8437" ry="7.8437" class="st3"/>
				</g>
				<g id="shape38-19" v:mID="38" v:groupContext="shape" transform="translate(250.999,-94.1251)">
					<title>工作表.81</title>
					<ellipse cx="7.8437" cy="326.968" rx="7.8437" ry="7.8437" class="st3"/>
				</g>
				<g id="shape39-21" v:mID="39" v:groupContext="shape" transform="translate(250.999,-5.68434E-14)">
					<title>工作表.82</title>
					<ellipse cx="7.8437" cy="326.968" rx="7.8437" ry="7.8437" class="st3"/>
				</g>
				<g id="shape40-23" v:mID="40" v:groupContext="shape" transform="translate(392.186,-141.187)">
					<title>工作表.83</title>
					<ellipse cx="7.8437" cy="326.968" rx="7.8437" ry="7.8437" class="st3"/>
				</g>
				<g id="shape41-25" v:mID="41" v:groupContext="shape" transform="translate(392.186,-235.312)">
					<title>工作表.84</title>
					<ellipse cx="7.8437" cy="326.968" rx="7.8437" ry="7.8437" class="st3"/>
				</g>
				<g id="shape42-27" v:mID="42" v:groupContext="shape" v:layerMember="1" transform="translate(142.245,-245.942)">
					<title>动态连接线.85</title>
					<path d="M0 334.81 L109.26 293.32 L0 334.81 Z" class="st1"/>
					<path d="M0 334.81 L109.26 293.32" class="st2"/>
				</g>
				<g id="shape43-30" v:mID="43" v:groupContext="shape" v:layerMember="1" transform="translate(142.245,-198.876)">
					<title>动态连接线.86</title>
					<path d="M0 293.32 L109.26 334.81 L0 293.32 Z" class="st1"/>
					<path d="M0 293.32 L109.26 334.81" class="st2"/>
				</g>
				<g id="shape44-33" v:mID="44" v:groupContext="shape" v:layerMember="1" transform="translate(140.688,-57.6615)">
					<title>动态连接线.87</title>
					<path d="M0 334.81 L110.81 293.26 L0 334.81 Z" class="st1"/>
					<path d="M0 334.81 L110.81 293.26" class="st2"/>
				</g>
				<g id="shape45-36" v:mID="45" v:groupContext="shape" v:layerMember="1" transform="translate(140.688,-10.6011)">
					<title>动态连接线.88</title>
					<path d="M0 293.26 L110.81 334.81 L0 293.26 Z" class="st1"/>
					<path d="M0 293.26 L110.81 334.81" class="st2"/>
				</g>
				<g id="shape46-39" v:mID="46" v:groupContext="shape" v:layerMember="1" transform="translate(266.284,-198.575)">
					<title>动态连接线.89</title>
					<path d="M0 334.81 L126.31 292.71 L0 334.81 Z" class="st1"/>
					<path d="M0 334.81 L126.31 292.71" class="st2"/>
				</g>
				<g id="shape47-42" v:mID="47" v:groupContext="shape" v:layerMember="1" transform="translate(266.284,-151.514)">
					<title>动态连接线.90</title>
					<path d="M0 292.71 L126.31 334.81 L0 292.71 Z" class="st1"/>
					<path d="M0 292.71 L126.31 334.81" class="st2"/>
				</g>
			</g>
		</g>
		<g id="group67-45" transform="translate(534.646,-21.4025)" v:mID="67" v:groupContext="group">
			<title>工作表.67</title>
			<g id="group68-46" v:mID="68" v:groupContext="group">
				<title>顶层流程</title>
				<g id="shape69-47" v:mID="69" v:groupContext="shape" v:layerMember="1" transform="translate(14.1466,-153.701)">
					<title>动态连接线</title>
					<path d="M0 334.81 L114.47 250.02 L0 334.81 Z" class="st1"/>
					<path d="M0 334.81 L114.47 250.02" class="st2"/>
				</g>
				<g id="shape70-50" v:mID="70" v:groupContext="shape" transform="translate(2.01839E-13,-141.187)">
					<title>工作表.40</title>
					<ellipse cx="7.8437" cy="326.968" rx="7.8437" ry="7.8437" class="st4"/>
				</g>
				<g id="shape71-52" v:mID="71" v:groupContext="shape" v:layerMember="1" transform="translate(14.1187,-59.6142)">
					<title>动态连接线.41</title>
					<path d="M0 250.1 L112.95 334.81 L0 250.1 Z" class="st1"/>
					<path d="M0 250.1 L112.95 334.81" class="st5"/>
				</g>
				<g id="shape72-55" v:mID="72" v:groupContext="shape" transform="translate(125.5,-47.0624)">
					<title>工作表.42</title>
					<ellipse cx="7.8437" cy="326.968" rx="7.8437" ry="7.8437" class="st6"/>
				</g>
				<g id="shape73-57" v:mID="73" v:groupContext="shape" transform="translate(127.069,-235.312)">
					<title>工作表.43</title>
					<ellipse cx="7.8437" cy="326.968" rx="7.8437" ry="7.8437" class="st4"/>
				</g>
				<g id="shape74-59" v:mID="74" v:groupContext="shape" transform="translate(250.999,-282.375)">
					<title>工作表.79</title>
					<ellipse cx="7.8437" cy="326.968" rx="7.8437" ry="7.8437" class="st6"/>
				</g>
				<g id="shape75-61" v:mID="75" v:groupContext="shape" transform="translate(250.999,-188.249)">
					<title>工作表.80</title>
					<ellipse cx="7.8437" cy="326.968" rx="7.8437" ry="7.8437" class="st4"/>
				</g>
				<g id="shape76-63" v:mID="76" v:groupContext="shape" transform="translate(250.999,-94.1251)">
					<title>工作表.81</title>
					<ellipse cx="7.8437" cy="326.968" rx="7.8437" ry="7.8437" class="st6"/>
				</g>
				<g id="shape77-65" v:mID="77" v:groupContext="shape" transform="translate(250.999,-5.68434E-14)">
					<title>工作表.82</title>
					<ellipse cx="7.8437" cy="326.968" rx="7.8437" ry="7.8437" class="st6"/>
				</g>
				<g id="shape78-67" v:mID="78" v:groupContext="shape" transform="translate(392.186,-141.187)">
					<title>工作表.83</title>
					<ellipse cx="7.8437" cy="326.968" rx="7.8437" ry="7.8437" class="st4"/>
				</g>
				<g id="shape79-69" v:mID="79" v:groupContext="shape" transform="translate(392.186,-235.312)">
					<title>工作表.84</title>
					<ellipse cx="7.8437" cy="326.968" rx="7.8437" ry="7.8437" class="st6"/>
				</g>
				<g id="shape80-71" v:mID="80" v:groupContext="shape" v:layerMember="1" transform="translate(142.245,-245.942)">
					<title>动态连接线.85</title>
					<path d="M0 334.81 L109.26 293.32 L0 334.81 Z" class="st1"/>
					<path d="M0 334.81 L109.26 293.32" class="st5"/>
				</g>
				<g id="shape81-74" v:mID="81" v:groupContext="shape" v:layerMember="1" transform="translate(142.245,-198.876)">
					<title>动态连接线.86</title>
					<path d="M0 293.32 L109.26 334.81 L0 293.32 Z" class="st1"/>
					<path d="M0 293.32 L109.26 334.81" class="st2"/>
				</g>
				<g id="shape82-77" v:mID="82" v:groupContext="shape" v:layerMember="1" transform="translate(140.688,-57.6615)">
					<title>动态连接线.87</title>
					<path d="M0 334.81 L110.81 293.26 L0 334.81 Z" class="st1"/>
					<path d="M0 334.81 L110.81 293.26" class="st5"/>
				</g>
				<g id="shape83-80" v:mID="83" v:groupContext="shape" v:layerMember="1" transform="translate(140.688,-10.6011)">
					<title>动态连接线.88</title>
					<path d="M0 293.26 L110.81 334.81 L0 293.26 Z" class="st1"/>
					<path d="M0 293.26 L110.81 334.81" class="st5"/>
				</g>
				<g id="shape84-83" v:mID="84" v:groupContext="shape" v:layerMember="1" transform="translate(266.284,-198.575)">
					<title>动态连接线.89</title>
					<path d="M0 334.81 L126.31 292.71 L0 334.81 Z" class="st1"/>
					<path d="M0 334.81 L126.31 292.71" class="st5"/>
				</g>
				<g id="shape85-86" v:mID="85" v:groupContext="shape" v:layerMember="1" transform="translate(266.284,-151.514)">
					<title>动态连接线.90</title>
					<path d="M0 292.71 L126.31 334.81 L0 292.71 Z" class="st1"/>
					<path d="M0 292.71 L126.31 334.81" class="st2"/>
				</g>
			</g>
		</g>
	</g>
</svg>
