<?xml version="1.0" encoding="UTF-8" standalone="no"?>
<!DOCTYPE svg PUBLIC "-//W3C//DTD SVG 1.1//EN" "http://www.w3.org/Graphics/SVG/1.1/DTD/svg11.dtd">
<!-- 由 Microsoft Visio, SVG Export 生成 updaing.svg Page-1 -->
<svg xmlns="http://www.w3.org/2000/svg" xmlns:xlink="http://www.w3.org/1999/xlink" xmlns:ev="http://www.w3.org/2001/xml-events"
		xmlns:v="http://schemas.microsoft.com/visio/2003/SVGExtensions/" width="13.7322in" height="4.65017in"
		viewBox="0 0 988.718 334.812" xml:space="preserve" color-interpolation-filters="sRGB" class="st9">
	<v:documentProperties v:langID="2052" v:metric="true" v:viewMarkup="false">
		<v:userDefs>
			<v:ud v:nameU="msvNoAutoConnect" v:val="VT0(1):26"/>
			<v:ud v:nameU="msvSubprocessMaster" v:prompt="" v:val="VT4(Multiple process)"/>
		</v:userDefs>
	</v:documentProperties>

	<style type="text/css">
	<![CDATA[
		.st1 {marker-end:url(#mrkr18-11);marker-start:url(#mrkr6-9);stroke:#000000;stroke-linecap:round;stroke-linejoin:round;stroke-width:3}
		.st2 {fill:#000000;fill-opacity:1;stroke:#000000;stroke-opacity:1;stroke-width:0.54347821785117}
		.st3 {fill:#c05046;stroke:#000000;stroke-linecap:round;stroke-linejoin:round;stroke-width:0.75}
		.st4 {fill:#92d050;stroke:#000000;stroke-linecap:round;stroke-linejoin:round;stroke-width:0.75}
		.st5 {marker-start:url(#mrkr6-9);stroke:#000000;stroke-dasharray:3,6;stroke-linecap:round;stroke-linejoin:round;stroke-width:3}
		.st6 {fill:none}
		.st7 {stroke:#000000;stroke-linecap:round;stroke-linejoin:round;stroke-width:3}
		.st8 {fill:#9dbb61;stroke:#000000;stroke-linecap:round;stroke-linejoin:round;stroke-width:0.75}
		.st9 {fill:none;fill-rule:evenodd;font-size:12px;overflow:visible;stroke-linecap:square;stroke-miterlimit:3}
	]]>
	</style>

	<defs id="Markers">
		<g id="lend6">
			<path d="M 2 1 L 0 0 L 2.01237 -1.00641 C 2.32921 -0.372876 2.32921 0.372869 2.01238 1.0064 " style="stroke:none"/>
		</g>
		<marker id="mrkr6-9" class="st2" v:arrowType="6" v:arrowSize="2" v:setback="0" refX="0" orient="auto"
				markerUnits="strokeWidth" overflow="visible">
			<use xlink:href="#lend6" transform="scale(1.8400001456431) "/>
		</marker>
		<g id="lend18">
			<path d="M 2 1 L 0 0 L 2.01237 -1.00641 C 2.32921 -0.372876 2.32921 0.372869 2.01238 1.0064 "
					style="stroke-linecap:round;stroke-linejoin:round;fill:none"/>
		</g>
		<marker id="mrkr18-11" class="st2" v:arrowType="18" v:arrowSize="2" v:setback="0" refX="-0" orient="auto"
				markerUnits="strokeWidth" overflow="visible">
			<use xlink:href="#lend18" transform="scale(-1.8400001456431,-1.8400001456431) "/>
		</marker>
	</defs>
	<g v:mID="0" v:index="1" v:groupContext="foregroundPage">
		<v:userDefs>
			<v:ud v:nameU="msvThemeOrder" v:val="VT0(0):26"/>
		</v:userDefs>
		<title>页-1</title>
		<v:pageProperties v:drawingScale="0.0393701" v:pageScale="0.0393701" v:drawingUnits="24" v:shadowOffsetX="9"
				v:shadowOffsetY="-9"/>
		<v:layer v:name="流程图" v:index="0"/>
		<v:layer v:name="连接线" v:index="1"/>
		<g id="group89-1" transform="translate(45.6695,-14.528)" v:mID="89" v:groupContext="group">
			<title>工作表.89</title>
			<g id="group90-2" v:mID="90" v:groupContext="group">
				<title>顶层流程</title>
				<g id="shape91-3" v:mID="91" v:groupContext="shape" v:layerMember="1" transform="translate(14.0919,-153.776)">
					<title>动态连接线</title>
					<path d="M0 334.81 L6.86 329.85 L7.06 329.7 L107.52 255.29 L114.52 250.1" class="st1"/>
				</g>
				<g id="shape92-12" v:mID="92" v:groupContext="shape" transform="translate(2.01839E-13,-141.187)">
					<title>工作表.40</title>
					<ellipse cx="7.8437" cy="326.968" rx="7.8437" ry="7.8437" class="st3"/>
				</g>
				<g id="shape93-14" v:mID="93" v:groupContext="shape" v:layerMember="1" transform="translate(14.036,-59.6125)">
					<title>动态连接线.41</title>
					<path d="M0 250.22 L6.86 255.18 L7.06 255.33 L106.06 329.58 L113.03 334.81" class="st1"/>
				</g>
				<g id="shape94-21" v:mID="94" v:groupContext="shape" transform="translate(125.5,-47.0624)">
					<title>工作表.42</title>
					<ellipse cx="7.8437" cy="326.968" rx="7.8437" ry="7.8437" class="st3"/>
				</g>
				<g id="shape95-23" v:mID="95" v:groupContext="shape" transform="translate(127.069,-235.312)">
					<title>工作表.43</title>
					<ellipse cx="7.8437" cy="326.968" rx="7.8437" ry="7.8437" class="st3"/>
				</g>
				<g id="shape96-25" v:mID="96" v:groupContext="shape" transform="translate(250.999,-282.375)">
					<title>工作表.79</title>
					<ellipse cx="7.8437" cy="326.968" rx="7.8437" ry="7.8437" class="st4"/>
				</g>
				<g id="shape97-27" v:mID="97" v:groupContext="shape" transform="translate(250.999,-188.249)">
					<title>工作表.80</title>
					<ellipse cx="7.8437" cy="326.968" rx="7.8437" ry="7.8437" class="st3"/>
				</g>
				<g id="shape98-29" v:mID="98" v:groupContext="shape" transform="translate(250.999,-94.1251)">
					<title>工作表.81</title>
					<ellipse cx="7.8437" cy="326.968" rx="7.8437" ry="7.8437" class="st3"/>
				</g>
				<g id="shape99-31" v:mID="99" v:groupContext="shape" transform="translate(250.999,-5.68434E-14)">
					<title>工作表.82</title>
					<ellipse cx="7.8437" cy="326.968" rx="7.8437" ry="7.8437" class="st4"/>
				</g>
				<g id="shape100-33" v:mID="100" v:groupContext="shape" transform="translate(392.186,-141.187)">
					<title>工作表.83</title>
					<ellipse cx="7.8437" cy="326.968" rx="7.8437" ry="7.8437" class="st3"/>
				</g>
				<g id="shape101-35" v:mID="101" v:groupContext="shape" transform="translate(392.186,-235.312)">
					<title>工作表.84</title>
					<ellipse cx="7.8437" cy="326.968" rx="7.8437" ry="7.8437" class="st4"/>
				</g>
				<g id="shape102-37" v:mID="102" v:groupContext="shape" v:layerMember="1" transform="translate(142.249,-245.923)">
					<title>动态连接线.85</title>
					<path d="M0 334.81 L7.91 331.79 L8.15 331.7 L109.26 293.3" class="st5"/>
				</g>
				<g id="shape103-42" v:mID="103" v:groupContext="shape" v:layerMember="1" transform="translate(142.249,-198.877)">
					<title>动态连接线.86</title>
					<path d="M0 293.3 L7.91 296.32 L8.15 296.41 L101.11 331.72 L109.26 334.81" class="st1"/>
				</g>
				<g id="shape104-49" v:mID="104" v:groupContext="shape" v:layerMember="1" transform="translate(140.705,-57.6074)">
					<title>动态连接线.87</title>
					<path d="M0 334.81 L7.91 331.79 L8.15 331.7 L102.63 296.27 L110.79 293.2" class="st1"/>
				</g>
				<g id="shape105-56" v:mID="105" v:groupContext="shape" v:layerMember="1" transform="translate(140.63,-10.6011)">
					<title>动态连接线.88</title>
					<path d="M0 293.42 L7.98 296.24 L8.22 296.32 L110.87 334.81" class="st5"/>
				</g>
				<g id="shape106-61" v:mID="106" v:groupContext="shape" v:layerMember="1" transform="translate(266.332,-198.432)">
					<title>动态连接线.89</title>
					<path d="M0 334.81 L7.98 331.99 L8.22 331.91 L126.26 292.57" class="st5"/>
				</g>
				<g id="shape107-66" v:mID="107" v:groupContext="shape" v:layerMember="1" transform="translate(266.26,-151.509)">
					<title>动态连接线.90</title>
					<path d="M0 292.78 L8.05 295.39 L8.29 295.47 L118.06 332.06 L126.33 334.81" class="st1"/>
				</g>
			</g>
		</g>
		<g id="group108-73" transform="translate(534.646,-14.528)" v:mID="108" v:groupContext="group">
			<title>工作表.108</title>
			<g id="group109-74" v:mID="109" v:groupContext="group">
				<title>顶层流程</title>
				<g id="shape110-75" v:mID="110" v:groupContext="shape" v:layerMember="1" transform="translate(14.1466,-153.701)">
					<title>动态连接线</title>
					<path d="M0 334.81 L114.47 250.02 L0 334.81 Z" class="st6"/>
					<path d="M0 334.81 L114.47 250.02" class="st7"/>
				</g>
				<g id="shape111-78" v:mID="111" v:groupContext="shape" transform="translate(2.08833E-13,-141.187)">
					<title>工作表.40</title>
					<ellipse cx="7.8437" cy="326.968" rx="7.8437" ry="7.8437" class="st8"/>
				</g>
				<g id="shape112-80" v:mID="112" v:groupContext="shape" v:layerMember="1" transform="translate(14.1187,-59.6142)">
					<title>动态连接线.41</title>
					<path d="M0 250.1 L112.95 334.81 L0 250.1 Z" class="st6"/>
					<path d="M0 250.1 L112.95 334.81" class="st7"/>
				</g>
				<g id="shape113-83" v:mID="113" v:groupContext="shape" transform="translate(125.5,-47.0624)">
					<title>工作表.42</title>
					<ellipse cx="7.8437" cy="326.968" rx="7.8437" ry="7.8437" class="st8"/>
				</g>
				<g id="shape114-85" v:mID="114" v:groupContext="shape" transform="translate(127.069,-235.312)">
					<title>工作表.43</title>
					<ellipse cx="7.8437" cy="326.968" rx="7.8437" ry="7.8437" class="st8"/>
				</g>
				<g id="shape115-87" v:mID="115" v:groupContext="shape" transform="translate(250.999,-282.375)">
					<title>工作表.79</title>
					<ellipse cx="7.8437" cy="326.968" rx="7.8437" ry="7.8437" class="st4"/>
				</g>
				<g id="shape116-89" v:mID="116" v:groupContext="shape" transform="translate(250.999,-188.249)">
					<title>工作表.80</title>
					<ellipse cx="7.8437" cy="326.968" rx="7.8437" ry="7.8437" class="st8"/>
				</g>
				<g id="shape117-91" v:mID="117" v:groupContext="shape" transform="translate(250.999,-94.1251)">
					<title>工作表.81</title>
					<ellipse cx="7.8437" cy="326.968" rx="7.8437" ry="7.8437" class="st8"/>
				</g>
				<g id="shape118-93" v:mID="118" v:groupContext="shape" transform="translate(250.999,-5.68434E-14)">
					<title>工作表.82</title>
					<ellipse cx="7.8437" cy="326.968" rx="7.8437" ry="7.8437" class="st4"/>
				</g>
				<g id="shape119-95" v:mID="119" v:groupContext="shape" transform="translate(392.186,-141.187)">
					<title>工作表.83</title>
					<ellipse cx="7.8437" cy="326.968" rx="7.8437" ry="7.8437" class="st8"/>
				</g>
				<g id="shape120-97" v:mID="120" v:groupContext="shape" transform="translate(392.186,-235.312)">
					<title>工作表.84</title>
					<ellipse cx="7.8437" cy="326.968" rx="7.8437" ry="7.8437" class="st4"/>
				</g>
				<g id="shape121-99" v:mID="121" v:groupContext="shape" v:layerMember="1" transform="translate(142.245,-245.942)">
					<title>动态连接线.85</title>
					<path d="M0 334.81 L109.26 293.32 L0 334.81 Z" class="st6"/>
					<path d="M0 334.81 L109.26 293.32" class="st7"/>
				</g>
				<g id="shape122-102" v:mID="122" v:groupContext="shape" v:layerMember="1" transform="translate(142.245,-198.876)">
					<title>动态连接线.86</title>
					<path d="M0 293.32 L109.26 334.81 L0 293.32 Z" class="st6"/>
					<path d="M0 293.32 L109.26 334.81" class="st7"/>
				</g>
				<g id="shape123-105" v:mID="123" v:groupContext="shape" v:layerMember="1" transform="translate(140.688,-57.6615)">
					<title>动态连接线.87</title>
					<path d="M0 334.81 L110.81 293.26 L0 334.81 Z" class="st6"/>
					<path d="M0 334.81 L110.81 293.26" class="st7"/>
				</g>
				<g id="shape124-108" v:mID="124" v:groupContext="shape" v:layerMember="1" transform="translate(140.688,-10.6011)">
					<title>动态连接线.88</title>
					<path d="M0 293.26 L110.81 334.81 L0 293.26 Z" class="st6"/>
					<path d="M0 293.26 L110.81 334.81" class="st7"/>
				</g>
				<g id="shape125-111" v:mID="125" v:groupContext="shape" v:layerMember="1" transform="translate(266.284,-198.575)">
					<title>动态连接线.89</title>
					<path d="M0 334.81 L126.31 292.71 L0 334.81 Z" class="st6"/>
					<path d="M0 334.81 L126.31 292.71" class="st7"/>
				</g>
				<g id="shape126-114" v:mID="126" v:groupContext="shape" v:layerMember="1" transform="translate(266.284,-151.514)">
					<title>动态连接线.90</title>
					<path d="M0 292.71 L126.31 334.81 L0 292.71 Z" class="st6"/>
					<path d="M0 292.71 L126.31 334.81" class="st7"/>
				</g>
			</g>
		</g>
	</g>
</svg>
