<?xml version="1.0" encoding="UTF-8" standalone="no"?>
<!DOCTYPE svg PUBLIC "-//W3C//DTD SVG 1.1//EN" "http://www.w3.org/Graphics/SVG/1.1/DTD/svg11.dtd">
<!-- 由 Microsoft Visio, SVG Export 生成 updating.svg Page-1 -->
<svg xmlns="http://www.w3.org/2000/svg" xmlns:xlink="http://www.w3.org/1999/xlink" xmlns:ev="http://www.w3.org/2001/xml-events"
		xmlns:v="http://schemas.microsoft.com/visio/2003/SVGExtensions/" width="13.7322in" height="4.65017in"
		viewBox="0 0 988.718 334.812" xml:space="preserve" color-interpolation-filters="sRGB" class="st15">
	<v:documentProperties v:langID="2052" v:metric="true" v:viewMarkup="false">
		<v:userDefs>
			<v:ud v:nameU="msvNoAutoConnect" v:val="VT0(1):26"/>
			<v:ud v:nameU="msvSubprocessMaster" v:prompt="" v:val="VT4(Multiple process)"/>
		</v:userDefs>
	</v:documentProperties>

	<style type="text/css">
	<![CDATA[
		.st1 {fill:none}
		.st2 {stroke:#000000;stroke-linecap:round;stroke-linejoin:round;stroke-width:3}
		.st3 {fill:#9dbb61;stroke:#000000;stroke-linecap:round;stroke-linejoin:round;stroke-width:0.75}
		.st4 {fill:#92d050;stroke:#000000;stroke-linecap:round;stroke-linejoin:round;stroke-width:0.75}
		.st5 {marker-end:url(#mrkr13-52);stroke:#000000;stroke-linecap:round;stroke-linejoin:round;stroke-width:3}
		.st6 {fill:#000000;fill-opacity:1;stroke:#000000;stroke-opacity:1;stroke-width:0.54347821785117}
		.st7 {fill:#ffc000;stroke:#000000;stroke-linecap:round;stroke-linejoin:round;stroke-width:0.75}
		.st8 {fill:#c05046;stroke:#000000;stroke-linecap:round;stroke-linejoin:round;stroke-width:0.75}
		.st9 {marker-start:url(#mrkr13-81);stroke:#000000;stroke-dasharray:21,15;stroke-linecap:round;stroke-linejoin:round;stroke-width:3}
		.st10 {marker-end:url(#mrkr5-119);stroke:#000000;stroke-linecap:round;stroke-linejoin:round;stroke-width:3}
		.st11 {fill:#000000;fill-opacity:1;stroke:#000000;stroke-opacity:1;stroke-width:0.4807691874872}
		.st12 {stroke:#000000;stroke-linecap:round;stroke-linejoin:round;stroke-width:0.24}
		.st13 {fill:none;stroke:none;stroke-linecap:round;stroke-linejoin:round;stroke-width:0.75}
		.st14 {fill:#000000;font-family:微软雅黑;font-size:1.5em}
		.st15 {fill:none;fill-rule:evenodd;font-size:12px;overflow:visible;stroke-linecap:square;stroke-miterlimit:3}
	]]>
	</style>

	<defs id="Markers">
		<g id="lend13">
			<path d="M 3 1 L 0 0 L 3 -1 L 3 1 " style="stroke:none"/>
		</g>
		<marker id="mrkr13-52" class="st6" v:arrowType="13" v:arrowSize="2" v:setback="0" refX="-0" orient="auto"
				markerUnits="strokeWidth" overflow="visible">
			<use xlink:href="#lend13" transform="scale(-1.8400001456431,-1.8400001456431) "/>
		</marker>
		<marker id="mrkr13-81" class="st6" v:arrowType="13" v:arrowSize="2" v:setback="0" refX="0" orient="auto"
				markerUnits="strokeWidth" overflow="visible">
			<use xlink:href="#lend13" transform="scale(1.8400001456431) "/>
		</marker>
		<g id="lend5">
			<path d="M 2 1 L 0 0 L 1.98117 -0.993387 C 1.67173 -0.364515 1.67301 0.372641 1.98465 1.00043 " style="stroke:none"/>
		</g>
		<marker id="mrkr5-119" class="st11" v:arrowType="5" v:arrowSize="3" v:setback="0" refX="-0" orient="auto"
				markerUnits="strokeWidth" overflow="visible">
			<use xlink:href="#lend5" transform="scale(-2.0800001872554,-2.0800001872554) "/>
		</marker>
	</defs>
	<g v:mID="0" v:index="1" v:groupContext="foregroundPage">
		<v:userDefs>
			<v:ud v:nameU="msvThemeOrder" v:val="VT0(0):26"/>
		</v:userDefs>
		<title>页-1</title>
		<v:pageProperties v:drawingScale="0.0393701" v:pageScale="0.0393701" v:drawingUnits="24" v:shadowOffsetX="9"
				v:shadowOffsetY="-9"/>
		<v:layer v:name="流程图" v:index="0"/>
		<v:layer v:name="连接线" v:index="1"/>
		<g id="group108-1" transform="translate(534.646,-14.528)" v:mID="108" v:groupContext="group">
			<title>工作表.108</title>
			<g id="group109-2" v:mID="109" v:groupContext="group">
				<title>顶层流程</title>
				<g id="shape110-3" v:mID="110" v:groupContext="shape" v:layerMember="1" transform="translate(14.1466,-153.701)">
					<title>动态连接线</title>
					<path d="M0 334.81 L114.47 250.02 L0 334.81 Z" class="st1"/>
					<path d="M0 334.81 L114.47 250.02" class="st2"/>
				</g>
				<g id="shape111-6" v:mID="111" v:groupContext="shape" transform="translate(2.08833E-13,-141.187)">
					<title>工作表.40</title>
					<ellipse cx="7.8437" cy="326.968" rx="7.8437" ry="7.8437" class="st3"/>
				</g>
				<g id="shape112-8" v:mID="112" v:groupContext="shape" v:layerMember="1" transform="translate(14.1187,-59.6142)">
					<title>动态连接线.41</title>
					<path d="M0 250.1 L112.95 334.81 L0 250.1 Z" class="st1"/>
					<path d="M0 250.1 L112.95 334.81" class="st2"/>
				</g>
				<g id="shape113-11" v:mID="113" v:groupContext="shape" transform="translate(125.5,-47.0624)">
					<title>工作表.42</title>
					<ellipse cx="7.8437" cy="326.968" rx="7.8437" ry="7.8437" class="st3"/>
				</g>
				<g id="shape114-13" v:mID="114" v:groupContext="shape" transform="translate(127.069,-235.312)">
					<title>工作表.43</title>
					<ellipse cx="7.8437" cy="326.968" rx="7.8437" ry="7.8437" class="st3"/>
				</g>
				<g id="shape115-15" v:mID="115" v:groupContext="shape" transform="translate(250.999,-282.375)">
					<title>工作表.79</title>
					<ellipse cx="7.8437" cy="326.968" rx="7.8437" ry="7.8437" class="st4"/>
				</g>
				<g id="shape116-17" v:mID="116" v:groupContext="shape" transform="translate(250.999,-188.249)">
					<title>工作表.80</title>
					<ellipse cx="7.8437" cy="326.968" rx="7.8437" ry="7.8437" class="st3"/>
				</g>
				<g id="shape117-19" v:mID="117" v:groupContext="shape" transform="translate(250.999,-94.1251)">
					<title>工作表.81</title>
					<ellipse cx="7.8437" cy="326.968" rx="7.8437" ry="7.8437" class="st3"/>
				</g>
				<g id="shape118-21" v:mID="118" v:groupContext="shape" transform="translate(250.999,-5.68434E-14)">
					<title>工作表.82</title>
					<ellipse cx="7.8437" cy="326.968" rx="7.8437" ry="7.8437" class="st4"/>
				</g>
				<g id="shape119-23" v:mID="119" v:groupContext="shape" transform="translate(392.186,-141.187)">
					<title>工作表.83</title>
					<ellipse cx="7.8437" cy="326.968" rx="7.8437" ry="7.8437" class="st3"/>
				</g>
				<g id="shape120-25" v:mID="120" v:groupContext="shape" transform="translate(392.186,-235.312)">
					<title>工作表.84</title>
					<ellipse cx="7.8437" cy="326.968" rx="7.8437" ry="7.8437" class="st4"/>
				</g>
				<g id="shape121-27" v:mID="121" v:groupContext="shape" v:layerMember="1" transform="translate(142.245,-245.942)">
					<title>动态连接线.85</title>
					<path d="M0 334.81 L109.26 293.32 L0 334.81 Z" class="st1"/>
					<path d="M0 334.81 L109.26 293.32" class="st2"/>
				</g>
				<g id="shape122-30" v:mID="122" v:groupContext="shape" v:layerMember="1" transform="translate(142.245,-198.876)">
					<title>动态连接线.86</title>
					<path d="M0 293.32 L109.26 334.81 L0 293.32 Z" class="st1"/>
					<path d="M0 293.32 L109.26 334.81" class="st2"/>
				</g>
				<g id="shape123-33" v:mID="123" v:groupContext="shape" v:layerMember="1" transform="translate(140.688,-57.6615)">
					<title>动态连接线.87</title>
					<path d="M0 334.81 L110.81 293.26 L0 334.81 Z" class="st1"/>
					<path d="M0 334.81 L110.81 293.26" class="st2"/>
				</g>
				<g id="shape124-36" v:mID="124" v:groupContext="shape" v:layerMember="1" transform="translate(140.688,-10.6011)">
					<title>动态连接线.88</title>
					<path d="M0 293.26 L110.81 334.81 L0 293.26 Z" class="st1"/>
					<path d="M0 293.26 L110.81 334.81" class="st2"/>
				</g>
				<g id="shape125-39" v:mID="125" v:groupContext="shape" v:layerMember="1" transform="translate(266.284,-198.575)">
					<title>动态连接线.89</title>
					<path d="M0 334.81 L126.31 292.71 L0 334.81 Z" class="st1"/>
					<path d="M0 334.81 L126.31 292.71" class="st2"/>
				</g>
				<g id="shape126-42" v:mID="126" v:groupContext="shape" v:layerMember="1" transform="translate(266.284,-151.514)">
					<title>动态连接线.90</title>
					<path d="M0 292.71 L126.31 334.81 L0 292.71 Z" class="st1"/>
					<path d="M0 292.71 L126.31 334.81" class="st2"/>
				</g>
			</g>
		</g>
		<g id="group158-45" transform="translate(45.6695,-21.8268)" v:mID="158" v:groupContext="group">
			<title>工作表.158</title>
			<g id="group159-46" v:mID="159" v:groupContext="group">
				<title>顶层流程</title>
				<g id="shape160-47" v:mID="160" v:groupContext="shape" v:layerMember="1" transform="translate(13.6535,-148.344)">
					<title>动态连接线</title>
					<path d="M0 334.81 L101.46 259.66 L110.47 252.98" class="st5"/>
				</g>
				<g id="shape161-53" v:mID="161" v:groupContext="shape" transform="translate(2.01839E-13,-136.266)">
					<title>工作表.40</title>
					<ellipse cx="7.57029" cy="327.242" rx="7.57029" ry="7.57029" class="st7"/>
				</g>
				<g id="shape162-55" v:mID="162" v:groupContext="shape" v:layerMember="1" transform="translate(13.6266,-57.5319)">
					<title>动态连接线.41</title>
					<path d="M0 253.05 L100.04 328.08 L109.01 334.81" class="st5"/>
				</g>
				<g id="shape163-60" v:mID="163" v:groupContext="shape" transform="translate(121.125,-45.422)">
					<title>工作表.42</title>
					<ellipse cx="7.57029" cy="327.242" rx="7.57029" ry="7.57029" class="st7"/>
				</g>
				<g id="shape164-62" v:mID="164" v:groupContext="shape" transform="translate(122.639,-227.109)">
					<title>工作表.43</title>
					<ellipse cx="7.57029" cy="327.242" rx="7.57029" ry="7.57029" class="st7"/>
				</g>
				<g id="shape165-64" v:mID="165" v:groupContext="shape" transform="translate(242.25,-272.532)">
					<title>工作表.79</title>
					<ellipse cx="7.57029" cy="327.242" rx="7.57029" ry="7.57029" class="st4"/>
				</g>
				<g id="shape166-66" v:mID="166" v:groupContext="shape" transform="translate(242.25,-181.688)">
					<title>工作表.80</title>
					<ellipse cx="7.57029" cy="327.242" rx="7.57029" ry="7.57029" class="st7"/>
				</g>
				<g id="shape167-68" v:mID="167" v:groupContext="shape" transform="translate(242.25,-90.8442)">
					<title>工作表.81</title>
					<ellipse cx="7.57029" cy="327.242" rx="7.57029" ry="7.57029" class="st8"/>
				</g>
				<g id="shape168-70" v:mID="168" v:groupContext="shape" transform="translate(242.25,-5.68434E-14)">
					<title>工作表.82</title>
					<ellipse cx="7.57029" cy="327.242" rx="7.57029" ry="7.57029" class="st4"/>
				</g>
				<g id="shape169-72" v:mID="169" v:groupContext="shape" transform="translate(378.516,-136.266)">
					<title>工作表.83</title>
					<ellipse cx="7.57029" cy="327.242" rx="7.57029" ry="7.57029" class="st8"/>
				</g>
				<g id="shape170-74" v:mID="170" v:groupContext="shape" transform="translate(378.516,-227.109)">
					<title>工作表.84</title>
					<ellipse cx="7.57029" cy="327.242" rx="7.57029" ry="7.57029" class="st4"/>
				</g>
				<g id="shape171-76" v:mID="171" v:groupContext="shape" v:layerMember="1" transform="translate(137.292,-237.345)">
					<title>动态连接线.85</title>
					<path d="M0 334.81 L10.25 330.89 L10.48 330.8 L105.45 294.74" class="st9"/>
				</g>
				<g id="shape172-82" v:mID="172" v:groupContext="shape" v:layerMember="1" transform="translate(137.287,-191.944)">
					<title>动态连接线.86</title>
					<path d="M0 294.76 L94.97 330.83 L105.46 334.81" class="st5"/>
				</g>
				<g id="shape173-87" v:mID="173" v:groupContext="shape" v:layerMember="1" transform="translate(135.784,-55.6516)">
					<title>动态连接线.87</title>
					<path d="M0 334.81 L96.45 298.64 L106.95 294.7" class="st5"/>
				</g>
				<g id="shape174-92" v:mID="174" v:groupContext="shape" v:layerMember="1" transform="translate(135.81,-10.2316)">
					<title>动态连接线.88</title>
					<path d="M0 294.64 L10.25 298.56 L10.48 298.65 L106.92 334.81" class="st9"/>
				</g>
				<g id="shape175-97" v:mID="175" v:groupContext="shape" v:layerMember="1" transform="translate(257.066,-191.469)">
					<title>动态连接线.89</title>
					<path d="M0 334.81 L10.35 331.16 L10.58 331.08 L121.84 294" class="st9"/>
				</g>
				<g id="shape176-102" v:mID="176" v:groupContext="shape" v:layerMember="1" transform="translate(257.002,-146.228)">
					<title>动态连接线.90</title>
					<path d="M0 294.17 L111.26 331.26 L121.9 334.81" class="st5"/>
				</g>
				<g id="group177-107" transform="translate(654.852,17.196) rotate(60)" v:mID="177" v:groupContext="group">
					<title>工作表.98</title>
					<g id="shape178-108" v:mID="178" v:groupContext="shape" transform="translate(-233.952,83.0042) rotate(-45)">
						<title>工作表.94</title>
						<path d="M-0 334.81 A13.5005 13.0771 90 0 1 18.49 334.81 L0 334.81 Z" class="st1"/>
						<path d="M-0 334.81 A13.5005 13.0771 90 0 1 18.49 334.81" class="st2"/>
					</g>
					<g id="shape179-111" v:mID="179" v:groupContext="shape" transform="translate(252.681,69.9271) rotate(45)">
						<title>工作表.95</title>
						<path d="M-0 334.81 A13.7668 13.5005 90 0 1 19.09 334.81 L0 334.81 Z" class="st1"/>
						<path d="M-0 334.81 A13.7668 13.5005 90 0 1 19.09 334.81" class="st2"/>
					</g>
					<g id="shape180-114" v:mID="180" v:groupContext="shape" transform="translate(283.339,538.423) rotate(130.681)">
						<title>工作表.96</title>
						<path d="M0 334.81 A13.2225 10.1208 139.11 0 1 9.8 331.45 L10.01 331.56 L16.41 334.76" class="st10"/>
					</g>
				</g>
				<g id="group181-120" transform="translate(464.666,-1.31522) rotate(45)" v:mID="181" v:groupContext="group">
					<title>工作表.99</title>
					<g id="shape182-121" v:mID="182" v:groupContext="shape" transform="translate(-233.952,83.0042) rotate(-45)">
						<title>工作表.100</title>
						<path d="M-0 334.81 A13.5005 13.0771 90 0 1 18.49 334.81 L0 334.81 Z" class="st1"/>
						<path d="M-0 334.81 A13.5005 13.0771 90 0 1 18.49 334.81" class="st2"/>
					</g>
					<g id="shape183-124" v:mID="183" v:groupContext="shape" transform="translate(252.681,69.9271) rotate(45)">
						<title>工作表.101</title>
						<path d="M-0 334.81 A13.7668 13.5005 90 0 1 19.09 334.81 L0 334.81 Z" class="st1"/>
						<path d="M-0 334.81 A13.7668 13.5005 90 0 1 19.09 334.81" class="st2"/>
					</g>
					<g id="shape184-127" v:mID="184" v:groupContext="shape" transform="translate(283.339,538.423) rotate(130.681)">
						<title>工作表.102</title>
						<path d="M0 334.81 A13.2225 10.1208 139.11 0 1 9.8 331.45 L10.01 331.56 L16.41 334.76" class="st10"/>
					</g>
				</g>
				<g id="shape185-132" v:mID="185" v:groupContext="shape" v:layerMember="1" transform="translate(14.9895,-142.324)">
					<title>动态连接线.105</title>
					<path d="M363.68 334.81 C272.76 334.81 90.92 334.81 0 334.81 L363.68 334.81 Z" class="st1"/>
					<path d="M363.68 334.81 C272.76 334.81 90.92 334.81 0 334.81" class="st12"/>
				</g>
				<g id="shape186-135" v:mID="186" v:groupContext="shape" v:layerMember="1" transform="translate(13.6272,-105.986)">
					<title>动态连接线.106</title>
					<path d="M236.19 334.81 C236.19 326.49 236.19 315.71 203.22 309.58 C159.76 301.5 59.05 301.5 0 301.5 L236.19
								 334.81 Z" class="st1"/>
					<path d="M236.19 334.81 C236.19 326.49 236.19 315.71 203.22 309.58 C159.76 301.5 59.05 301.5 0 301.5"
							class="st12"/>
				</g>
				<g id="shape187-138" v:mID="187" v:groupContext="shape" transform="translate(-2.01439E-12,-150.421)">
					<title>工作表.107</title>
					<desc>直接通知根级组件</desc>
					<v:userDefs/>
					<v:textBlock v:margins="rect(4,4,4,4)" v:tabSpace="42.5197"/>
					<v:textRect cx="143.006" cy="327.242" width="286.02" height="15.1407"/>
					<rect x="0" y="319.671" width="286.012" height="15.1407" class="st13"/>
					<text x="71.01" y="332.64" class="st14" v:langID="2052"><v:paragraph v:horizAlign="1"/><v:tabList/>直接通知根级组件</text>				</g>
			</g>
		</g>
	</g>
</svg>
